PathFileType	4	(X/Y/Z)	 s01c0103.trc
DataRate	CameraRate	NumFrames	NumMarkers	Units	OrigDataRate	OrigDataStartFrame	OrigNumFrames
200	200	4	48	mm	200	1	2000
Frame#	Time	racr			lacr			c7			jug			rlel			rdr			llel			ldr			s2			lic			ric			lasi			rasi			rpsi			lpsi			rgt			lgt			rth1			rth2			rth3			rth4			rlfc			rsh1			rsh2			rsh3			rsh4			rlmal			rmmal			rcal			rtoe			rmt5			lth1			lth2			lth4			lth3			llfc			lsh1			lsh2			lsh3			lsh4			llmal			lmmal			lcal			ltoe			lmt5			SBIKE			LBIKE			RBIKE			
		X1	Y1	Z1	X2	Y2	Z2	X3	Y3	Z3	X4	Y4	Z4	X5	Y5	Z5	X6	Y6	Z6	X7	Y7	Z7	X8	Y8	Z8	X9	Y9	Z9	X10	Y10	Z10	X11	Y11	Z11	X12	Y12	Z12	X13	Y13	Z13	X14	Y14	Z14	X15	Y15	Z15	X16	Y16	Z16	X17	Y17	Z17	X18	Y18	Z18	X19	Y19	Z19	X20	Y20	Z20	X21	Y21	Z21	X22	Y22	Z22	X23	Y23	Z23	X24	Y24	Z24	X25	Y25	Z25	X26	Y26	Z26	X27	Y27	Z27	X28	Y28	Z28	X29	Y29	Z29	X30	Y30	Z30	X31	Y31	Z31	X32	Y32	Z32	X33	Y33	Z33	X34	Y34	Z34	X35	Y35	Z35	X36	Y36	Z36	X37	Y37	Z37	X38	Y38	Z38	X39	Y39	Z39	X40	Y40	Z40	X41	Y41	Z41	X42	Y42	Z42	X43	Y43	Z43	X44	Y44	Z44	X45	Y45	Z45	X46	Y46	Z46	X47	Y47	Z47	X48	Y48	Z48	
1	0.0050	NaN	NaN	NaN	NaN	NaN	NaN	445.665591	1372.952599	-271.020683	487.112699	1329.560867	-130.712881	NaN	NaN	NaN	NaN	NaN	NaN	NaN	NaN	NaN	NaN	NaN	NaN	-84.206097	1162.224734	-247.264884	86.283287	1160.090252	-410.975574	82.660755	1129.100660	-92.768818	74.834271	1106.939784	-396.675813	94.882355	1077.723844	-115.901801	-49.790064	1184.675046	-187.077283	-55.531817	1195.569927	-291.937989	0.312238	1014.197270	-63.199276	13.688516	1052.131764	-457.676064	58.438241	891.051640	-47.532266	106.264698	822.527457	-51.773013	152.485668	745.764132	-67.170385	152.843646	851.840403	-62.551042	185.262829	642.726827	-88.281553	117.283270	544.487955	-57.093248	84.208082	465.341322	-61.854831	41.694549	387.646196	-75.902086	128.276514	446.836208	-98.603507	-12.647028	270.837265	-95.947388	24.912350	287.043396	-175.665799	-60.170106	233.705618	-149.060643	210.732201	227.247059	-138.501607	108.819913	193.453169	-67.726891	113.861250	978.255433	-460.200425	202.718758	970.563696	-465.230946	208.908209	1024.639476	-456.410343	286.411271	955.042199	-450.956587	393.664915	893.482664	-430.305942	316.056843	808.912844	-451.125827	284.080869	728.640956	-442.708493	251.297941	650.797024	-425.867720	337.528817	710.190761	-416.808452	208.471130	530.342311	-405.460039	236.744542	542.723826	-323.011605	159.767634	483.834343	-367.213667	436.714689	500.622986	-369.893397	335.868953	466.387877	-438.120187	NaN	NaN	NaN	-12.346767	84.944728	-456.260204	-21.696302	81.048132	-55.842293	
2	0.0100	NaN	NaN	NaN	NaN	NaN	NaN	445.728224	1372.873129	-271.073659	487.239207	1329.428722	-130.870028	NaN	NaN	NaN	NaN	NaN	NaN	NaN	NaN	NaN	NaN	NaN	NaN	-84.142833	1162.220736	-247.247343	86.343598	1160.103754	-410.993604	82.707719	1129.053910	-92.734792	74.876332	1106.956401	-396.646408	94.937061	1077.683312	-115.902330	-49.730177	1184.719957	-187.052799	-55.471404	1195.576785	-291.901577	0.360944	1014.173308	-63.188545	13.733284	1052.181192	-457.654365	58.485437	891.033079	-47.515925	106.339836	822.497454	-51.771469	152.549925	745.751772	-67.167355	152.892364	851.832356	-62.539332	185.326056	642.743648	-88.273412	117.343872	544.482266	-57.088921	84.215251	465.356048	-61.866912	41.721553	387.654378	-75.879725	128.330477	446.814340	-98.618119	-12.626752	270.809863	-95.928381	25.000108	287.004468	-175.691144	-60.147519	233.724611	-149.047742	210.737859	227.251376	-138.495439	108.848522	193.457158	-67.726877	113.898519	978.302400	-460.200892	202.752126	970.635252	-465.197954	208.975657	1024.664147	-456.415877	286.435482	955.031064	-450.933505	393.684639	893.486771	-430.287104	316.067872	808.915741	-451.115736	284.095595	728.646298	-442.701732	251.303311	650.808750	-425.855556	337.530319	710.189262	-416.791149	208.472754	530.359005	-405.457008	236.691064	542.699050	-323.017712	159.775398	483.842668	-367.201112	436.712511	500.622981	-369.889224	335.868232	466.391280	-438.111959	NaN	NaN	NaN	-12.336950	84.922167	-456.268003	-21.704655	81.045866	-55.854554	
3	0.0150	NaN	NaN	NaN	NaN	NaN	NaN	445.714222	1372.745715	-271.074352	487.335163	1329.296535	-131.004907	NaN	NaN	NaN	NaN	NaN	NaN	NaN	NaN	NaN	NaN	NaN	NaN	-84.106579	1162.224203	-247.213584	86.333738	1160.175557	-410.944749	82.750944	1129.025947	-92.700777	74.883132	1106.995123	-396.650703	94.988959	1077.662406	-115.867700	-49.682246	1184.734475	-186.996545	-55.418213	1195.585074	-291.864847	0.401789	1014.145559	-63.175847	13.748485	1052.225126	-457.628983	58.528731	891.005882	-47.529573	106.399077	822.469251	-51.791936	152.589154	745.730124	-67.159289	152.940802	851.812981	-62.543779	185.377946	642.734531	-88.290336	117.389867	544.477838	-57.093577	84.272546	465.369954	-61.856195	41.751166	387.663133	-75.898842	128.333288	446.805439	-98.611687	-12.618072	270.825539	-95.928952	25.142494	286.956018	-175.751654	-60.141003	233.749439	-149.050914	210.765447	227.232007	-138.498286	108.849530	193.447919	-67.733722	113.919601	978.326150	-460.178704	202.778431	970.645190	-465.186172	209.015563	1024.673241	-456.374620	286.468739	955.039537	-450.917489	393.697708	893.483469	-430.266178	316.081059	808.923746	-451.101795	284.113558	728.649611	-442.689922	251.307256	650.818605	-425.857089	337.543656	710.196776	-416.775880	208.472280	530.359466	-405.457762	236.691977	542.702245	-323.019470	159.769643	483.852473	-367.193694	436.709048	500.618912	-369.893791	335.870749	466.395552	-438.106015	NaN	NaN	NaN	-12.339736	84.920098	-456.270810	-21.715151	81.037761	-55.861505	
4	0.0200	NaN	NaN	NaN	NaN	NaN	NaN	445.702778	1372.620937	-271.075455	487.288268	1328.802895	-131.585422	NaN	NaN	NaN	NaN	NaN	NaN	NaN	NaN	NaN	NaN	NaN	NaN	-84.073700	1162.241397	-247.163703	86.421006	1160.258183	-410.999566	82.806262	1129.008545	-92.676923	74.956952	1106.992309	-396.604848	95.404501	1077.716573	-115.823824	-49.970138	1185.620288	-186.129666	-55.365974	1195.594206	-291.829883	0.427442	1014.021769	-63.129017	13.784219	1052.231259	-457.605343	58.580559	890.996107	-47.494525	106.431474	822.465564	-51.779566	152.706884	745.811548	-67.361393	153.273054	852.213951	-62.079461	185.285096	642.742803	-88.290572	117.429175	544.474409	-57.097950	84.299143	465.369848	-61.861435	41.772022	387.669774	-75.887430	128.376961	446.806489	-98.604098	-12.666399	271.106462	-96.058847	25.271589	286.918575	-175.809752	-60.121554	233.769613	-149.052550	210.642008	227.230917	-138.397567	108.834409	193.458117	-67.727613	113.926163	978.363689	-460.157088	202.812911	970.477140	-465.265788	209.143792	1024.655572	-456.351807	286.484811	955.048164	-450.901316	393.695774	893.488048	-430.245946	316.089950	808.937202	-451.080928	284.119369	728.650894	-442.678530	251.506955	650.889703	-425.826671	338.120572	710.318658	-418.116933	208.475428	530.361797	-405.459436	236.734992	542.681172	-323.021563	159.681960	484.131635	-367.207384	436.715916	500.618742	-369.891045	335.871535	466.403216	-438.098370	NaN	NaN	NaN	-12.340931	84.928720	-456.260950	-21.710463	81.051507	-55.862046	
